<svg width="45" height="47" viewBox="0 0 45 47" fill="none" xmlns="http://www.w3.org/2000/svg">
<path d="M11.59 2.30941C14.9817 1.18516 17.0607 0.297651 20.6945 0.0591509C47.3905 -1.6936 53.5002 36.0221 29.1165 44.6836C27.1365 45.3869 24.6442 45.5172 22.7442 46.2087C18.1837 38.9794 13.4222 37.6276 5.38623 37.0319C-0.847523 29.1099 -2.00452 18.7514 3.68198 10.1812C6.44448 6.48816 7.87398 5.02466 11.59 2.30941Z" fill="#FEFEFE"/>
<path d="M20.795 5.66243C28.1445 4.60093 34.973 9.67017 36.084 17.0124C37.1952 24.3544 32.1725 31.2172 24.838 32.3779C17.433 33.5502 10.4895 28.4684 9.36774 21.0554C8.24599 13.6424 13.3747 6.73393 20.795 5.66243Z" fill="black"/>
<path d="M27.6395 9.22565C27.8637 9.3479 27.8792 9.35365 28.0197 9.57115C28.9715 11.0434 30.2957 11.9531 31.713 12.9286C30.5445 14.1679 29.035 15.9819 28.202 17.4384C27.7257 17.2389 25.0352 14.3096 24.398 13.6456C24.451 12.9161 26.57 11.2066 27.5042 9.4789L27.6395 9.22565Z" fill="#FEFEFE"/>
</svg>
